<svg xmlns="http://www.w3.org/2000/svg" viewBox="0 0 51.5 6.6"><path d="M31 1.7a12.2 12.2 0 00-4.7.1c.2.1.4.3.5.2a29.7 29.7 0 004.2-.3M5.1 6.6c-.1-.6.3-.8.5-1.1s.6-.4 1-.5l3.1-.5 4.7-1 3.5-.5h.3c1-.4 2.1-.2 3.2-.5a12 12 0 012-.3h.6a2.3 2.3 0 002-.4h-.3l-5.6.2-5.7.5-7.6.8-4 .7-1.9.6c-.3.1-.5.3-.9-.1a1.8 1.8 0 011-1.4 13.9 13.9 0 014.4-1.3l6.2-.9 4.5-.4L19 .2h13.3a82.2 82.2 0 019.9.6l5.6.8.6.2h-.7c1.2.5 2.6.2 3.8 1.1a4.5 4.5 0 01-2.3 0 15.2 15.2 0 01-2.1-.3L45 2.3c.4.4 1.2.3 1.6.9H34l-4.5.3-3.5.4-4 .4-3.4.4-1.8.3-5.1.8-2 .4h-.3c-.4.6-.9.4-1.4.4H5.1" fill="#bb946e" fill-rule="evenodd"/></svg>
